<?xml version="1.0" encoding="utf-8"?>
<!-- Generator: Adobe Illustrator 21.0.0, SVG Export Plug-In . SVG Version: 6.00 Build 0)  -->
<svg version="1.1" id="Capa_1" xmlns="http://www.w3.org/2000/svg" xmlns:xlink="http://www.w3.org/1999/xlink" x="0px" y="0px"
	 viewBox="0 0 244.1 91.3" style="enable-background:new 0 0 244.1 91.3;" xml:space="preserve">
<style type="text/css">
	.st0{fill:#4D1A50;}
	.st1{fill:#E24F30;}
</style>
<g>
	<path class="st0" d="M89.3,45.4c0,4.6,3.7,8.3,8.3,8.3c2.6,0,5.1-1.2,6.7-3.3c1.2-1.6,3.4-1.9,5-0.7s1.9,3.5,0.7,5
		c-2.9,3.9-7.5,6.2-12.4,6.2c-8.5,0-15.5-7-15.5-15.5s7-15.5,15.5-15.5c4.9,0,9.5,2.4,12.5,6.3c1.2,1.6,0.8,3.8-0.8,5
		c-1.6,1.2-3.8,0.8-5-0.8c-1.6-2.1-4-3.4-6.7-3.4C93.1,37.1,89.3,40.8,89.3,45.4z"/>
	<path class="st0" d="M143.5,57.3c0,2-1.6,3.6-3.6,3.6c-1.6,0-3-1.1-3.4-2.5c-2.5,1.6-5.4,2.5-8.5,2.5c-8.5,0-15.5-7-15.5-15.5
		s7-15.5,15.5-15.5c3.1,0,6,0.9,8.5,2.5c0.4-1.4,1.8-2.5,3.4-2.5c2,0,3.6,1.6,3.6,3.6V57.3z M136.3,45.1c-0.2-4.4-3.9-7.9-8.3-7.9
		c-4.6,0-8.3,3.7-8.3,8.3s3.7,8.3,8.3,8.3c4.4,0,8.1-3.5,8.3-7.9V45.1z"/>
	<path class="st0" d="M177.2,57.4c0,2-1.6,3.6-3.6,3.6c-2.1-0.1-3.1-1.2-3.4-2.5c-2.5,1.6-5.4,2.5-8.5,2.5c-8.5,0-15.5-7-15.5-15.5
		s7-15.5,15.5-15.5c3.1,0,5.9,0.9,8.3,2.5V20.9c0-2,1.6-3.6,3.6-3.6s3.6,1.6,3.6,3.6L177.2,57.4L177.2,57.4z M170,45.5
		c0-4.7-3.9-8.3-8.3-8.3c-4.6,0-8.3,3.7-8.3,8.3s3.7,8.3,8.3,8.3S170,50.1,170,45.5z"/>
	<path class="st0" d="M211,57.4c0,2-1.6,3.6-3.6,3.6c-2.1-0.1-3.1-1.2-3.4-2.5c-2.5,1.6-5.4,2.5-8.5,2.5C187,61,180,54,180,45.5
		S187,30,195.5,30c3.1,0,5.9,0.9,8.3,2.5V20.9c0-2,1.6-3.6,3.6-3.6s3.6,1.6,3.6,3.6L211,57.4L211,57.4z M203.8,45.5
		c0-4.7-3.9-8.3-8.3-8.3c-4.6,0-8.3,3.7-8.3,8.3s3.7,8.3,8.3,8.3S203.8,50.1,203.8,45.5z"/>
	<path class="st0" d="M237.4,32c0.6-1.1,1.8-1.9,3.1-1.9c2,0,3.6,1.6,3.6,3.6c0,0.3-0.1,0.9-0.6,2l-17.6,34.5c-0.6,1.3-1.9,2-3.2,2
		c-0.5,0-1.1-0.1-1.6-0.4c-1.8-0.9-2.5-3.1-1.5-4.8l5-9.9l-11-21.8c-0.9-1.8-0.2-3.9,1.6-4.8s3.9-0.2,4.8,1.6l8.7,17.1L237.4,32z"/>
	<g>
		<path class="st1" d="M67.3,25.1l-7.5-4.5L57.3,19c2-2,3.3-4.8,3.3-7.9C60.6,5,55.6,0,49.4,0C44,0,39.5,3.8,38.5,8.9
			c-1.3-0.2-2.7-0.2-4,0C33.4,3.8,28.9,0,23.6,0c-6.2,0-11.2,5-11.2,11.2c0,3,1.2,5.8,3.2,7.8l-4.9,3l-5.1,3.1
			C2.1,27.2,0,30.6,0,34.4v31.3c0,3.7,2.1,7.2,5.6,9.3l23.7,14.3c2.2,1.3,4.7,2,7.2,2s5-0.7,7.2-2L67.3,75c3.5-2.1,5.6-5.6,5.6-9.3
			V34.4C72.9,30.6,70.8,27.2,67.3,25.1z M49.4,5c3.4,0,6.2,2.8,6.2,6.2c0,2.2-1.1,4.1-2.8,5.2l-3.2-1.9l-6.1-3.6
			c-0.1-0.1-0.2-0.1-0.3-0.2C43.6,7.4,46.2,5,49.4,5z M23.6,5c3.2,0,5.8,2.4,6.2,5.5c-0.1,0.1-0.3,0.2-0.4,0.2l-9.2,5.5
			c-1.6-1.1-2.7-3-2.7-5.1C17.3,7.7,20.1,5,23.6,5z M67.6,65.7c0,2.2-1.2,4.2-3.3,5.5L40.6,85.4c-2.5,1.5-5.8,1.5-8.4,0L8.5,71.1
			c-2-1.2-3.3-3.3-3.3-5.5V34.4c0-2.2,1.2-4.2,3.3-5.5l23.7-14.3c1.3-0.8,2.7-1.2,4.2-1.2s2.9,0.4,4.2,1.2l23.7,14.3
			c2,1.2,3.3,3.3,3.3,5.5C67.6,34.4,67.6,65.7,67.6,65.7z"/>
		<path class="st1" d="M54.6,35.6L45.2,41c-6.7-5.2-13.1-2.8-16.5-0.1l-8.5-5c-1.3-0.8-3-0.4-3.8,0.9c-0.8,1.3-0.4,3,0.9,3.8
			l15.9,9.5c0.6,0.4,1,1,1,1.7v9.3h-4.1c-1.5,0-2.7,1.2-2.7,2.7s1.2,2.7,2.7,2.7h0.7v1.7c0,3.4,2.8,6.2,6.2,6.2
			c3.4,0,6.2-2.8,6.2-6.2v-1.7h1.1c1.5,0,2.7-1.2,2.7-2.7c0-1.5-1.2-2.7-2.7-2.7h-4.5v-9.3c0-0.7,0.4-1.3,1-1.7l16.7-9.8
			c1.3-0.8,1.7-2.5,1-3.8C57.6,35.2,55.9,34.8,54.6,35.6z M39,68.2c0,1.1-0.9,1.9-1.9,1.9c-1.1,0-1.9-0.9-1.9-1.9v-1.7H39V68.2z
			 M37,45.8l-3.4-2.2c1.7-0.8,4.1-1.2,6.8,0.1L37,45.8z"/>
	</g>
</g>
</svg>
