<?xml version="1.0" encoding="utf-8"?>
<!-- Generator: Adobe Illustrator 21.0.0, SVG Export Plug-In . SVG Version: 6.00 Build 0)  -->
<svg version="1.1" id="Capa_1" xmlns="http://www.w3.org/2000/svg" xmlns:xlink="http://www.w3.org/1999/xlink" x="0px" y="0px"
	 viewBox="0 0 72.9 91.3" style="enable-background:new 0 0 72.9 91.3;" xml:space="preserve">
<style type="text/css">
	.st0{fill:#E24F30;}
</style>
<g>
	<g>
		<path class="st0" d="M63.2,27.9L56.7,24l-2.2-1.4c1.7-1.7,2.9-4.2,2.9-6.8c0-5.3-4.3-9.6-9.7-9.6c-4.7,0-8.6,3.3-9.4,7.7
			c-1.1-0.2-2.3-0.2-3.5,0c-1-4.4-4.8-7.7-9.4-7.7c-5.4,0-9.7,4.3-9.7,9.7c0,2.6,1,5,2.8,6.8l-4.2,2.6l-4.4,2.7
			c-3,1.8-4.8,4.8-4.8,8V63c0,3.2,1.8,6.2,4.8,8l20.5,12.4c1.9,1.1,4.1,1.7,6.2,1.7s4.3-0.6,6.2-1.7l20.4-12.4c3-1.8,4.8-4.8,4.8-8
			V35.9C68,32.6,66.2,29.7,63.2,27.9z M47.7,10.5c2.9,0,5.4,2.4,5.4,5.4c0,1.9-1,3.5-2.4,4.5l-2.8-1.6l-5.3-3.1
			c-0.1-0.1-0.2-0.1-0.3-0.2C42.6,12.5,44.9,10.5,47.7,10.5z M25.3,10.5c2.8,0,5,2.1,5.4,4.8c-0.1,0.1-0.3,0.2-0.3,0.2l-8,4.8
			c-1.4-1-2.3-2.6-2.3-4.4C19.9,12.8,22.3,10.5,25.3,10.5z M63.4,63c0,1.9-1,3.6-2.9,4.8L40,80.1c-2.2,1.3-5,1.3-7.3,0L12.3,67.7
			c-1.7-1-2.9-2.9-2.9-4.8v-27c0-1.9,1-3.6,2.9-4.8l20.5-12.4c1.1-0.7,2.3-1,3.6-1s2.5,0.3,3.6,1l20.5,12.4c1.7,1,2.9,2.9,2.9,4.8
			C63.4,35.9,63.4,63,63.4,63z"/>
		<path class="st0" d="M52.2,37L44,41.6c-5.8-4.5-11.3-2.4-14.3-0.1l-7.4-4.3c-1.1-0.7-2.6-0.3-3.3,0.8c-0.7,1.1-0.3,2.6,0.8,3.3
			l13.8,8.2c0.5,0.3,0.9,0.9,0.9,1.5v8H31c-1.3,0-2.3,1-2.3,2.3s1,2.3,2.3,2.3h0.6v1.5c0,2.9,2.4,5.4,5.4,5.4c2.9,0,5.4-2.4,5.4-5.4
			v-1.5h1c1.3,0,2.3-1,2.3-2.3c0-1.3-1-2.3-2.3-2.3h-3.9v-8c0-0.6,0.3-1.1,0.9-1.5L54.7,41c1.1-0.7,1.5-2.2,0.9-3.3
			C54.8,36.6,53.3,36.3,52.2,37z M38.7,65.2c0,1-0.8,1.6-1.6,1.6c-1,0-1.6-0.8-1.6-1.6v-1.5h3.3V65.2z M36.9,45.8L34,43.9
			c1.5-0.7,3.5-1,5.9,0.1L36.9,45.8z"/>
	</g>
</g>
</svg>
