<?xml version="1.0" encoding="utf-8"?>
<!-- Generator: Adobe Illustrator 21.0.0, SVG Export Plug-In . SVG Version: 6.00 Build 0)  -->
<svg version="1.1" id="Capa_1" xmlns="http://www.w3.org/2000/svg" xmlns:xlink="http://www.w3.org/1999/xlink" x="0px" y="0px"
	 viewBox="0 0 178.5 871.4" style="enable-background:new 0 0 178.5 871.4;" xml:space="preserve">
<style type="text/css">
	.st0{clip-path:url(#SVGID_2_);}
	.st1{fill:#E24F30;}
</style>
<g>
	<defs>
		<rect id="SVGID_1_" width="178.5" height="871.4"/>
	</defs>
	<clipPath id="SVGID_2_">
		<use xlink:href="#SVGID_1_"  style="overflow:visible;"/>
	</clipPath>
	<g class="st0">
		<path class="st1" d="M431.5,361.7l-47.9-28.9l-16-9.7c12.9-12.9,20.9-30.8,20.9-50.4c0-39.5-32.1-71.6-71.6-71.6
			c-34.6,0-63.5,24.7-70.1,57.3c-8.5-1.2-17.2-1.3-25.7-0.1c-6.7-32.6-35.6-57.2-70.1-57.2c-39.5,0-71.6,32.1-71.6,71.6
			c0,19.5,7.9,37.3,20.7,50.2l-31.4,18.9l-33,19.9C13.3,375.2,0,397.5,0,421.4v200.7c0,23.9,13.3,46.3,35.7,59.7l152.1,91.7
			c13.9,8.4,29.9,12.6,45.9,12.6c16,0,31.9-4.2,45.9-12.6l152.1-91.7c22.3-13.5,35.7-35.8,35.7-59.7V421.4
			C467.2,397.5,453.9,375.2,431.5,361.7z M316.9,232.9c21.9,0,39.8,17.8,39.8,39.8c0,13.8-7.1,26-17.8,33.1l-20.6-12.4L279.5,270
			c-0.7-0.4-1.4-0.8-2.1-1.2C279.3,248.7,296.3,232.9,316.9,232.9z M151,232.9c20.5,0,37.4,15.6,39.5,35.5c-0.9,0.5-1.9,1-2.8,1.5
			l-59,35.6c-10.6-7.1-17.5-19.2-17.5-32.9C111.2,250.7,129.1,232.9,151,232.9z M433.4,622.2c0,14-7.8,27.1-20.9,35l-152.1,91.7
			c-16.3,9.8-37.4,9.8-53.7,0L54.6,657.2c-13.1-7.9-20.9-21-20.9-35V421.4c0-14,7.8-27.1,20.9-35l152.1-91.7
			c8.2-4.9,17.5-7.4,26.9-7.4c9.3,0,18.7,2.5,26.9,7.4l152.1,91.7c13.1,7.9,20.9,21,20.9,35V622.2z"/>
		<path class="st1" d="M349.7,429.2l-59.8,34.4c-42.7-33.3-84.2-17.9-106-0.6l-54.4-32.3c-8.4-5.1-19.4-2.4-24.5,6
			c-5.1,8.4-2.4,19.4,6.1,24.5l102.1,61.1c3.8,2.3,6.2,6.5,6.2,10.9v59.8H193c-9.4,0-17,7.7-17,17c0,9.4,7.7,17,17,17h4.5v11.1
			c0,21.9,17.8,39.8,39.8,39.8s39.8-17.8,39.8-39.8v-11.1h6.8c9.4,0,17-7.7,17-17c0-9.4-7.7-17-17-17H255v-59.8
			c0-4.5,2.4-8.6,6.2-10.9l106.8-62.6c8.4-5.1,11.2-16,6.1-24.5C369.1,426.9,358.2,424.2,349.7,429.2z M249.8,638.3
			c0,6.9-5.6,12.5-12.5,12.5s-12.5-5.6-12.5-12.5v-11.1h25V638.3z M237,494.5l-21.5-14.3c10.8-5,26.1-7.9,43.4,0.6L237,494.5z"/>
	</g>
</g>
</svg>
