<?xml version="1.0" encoding="utf-8"?>
<!-- Generator: Adobe Illustrator 21.0.0, SVG Export Plug-In . SVG Version: 6.00 Build 0)  -->
<svg version="1.1" id="Capa_1" xmlns="http://www.w3.org/2000/svg" xmlns:xlink="http://www.w3.org/1999/xlink" x="0px" y="0px"
	 viewBox="0 0 244.1 91.3" style="enable-background:new 0 0 244.1 91.3;" xml:space="preserve">
<style type="text/css">
	.st0{fill:#FFFFFF;}
</style>
<g>
	<g>
		<path class="st0" d="M91.2,72.3h-1v-4.8h-1.9v-0.9H93v0.9h-1.9V72.3z"/>
		<path class="st0" d="M98.1,72.3l-1.4-2h-1.3v2h-1v-5.8h2.6c1.4,0,2.2,0.7,2.2,1.8c0,1-0.6,1.5-1.4,1.8l1.6,2.2H98.1z M96.8,67.5
			h-1.5v1.9h1.5c0.7,0,1.2-0.4,1.2-1C98.1,67.8,97.6,67.5,96.8,67.5z"/>
		<path class="st0" d="M106.2,72.3h-1.1l-0.6-1.4h-2.8l-0.6,1.4h-1.1l2.6-5.8h1L106.2,72.3z M103.1,67.7l-1,2.3h2L103.1,67.7z"/>
		<path class="st0" d="M111.5,66.6h1v5.8h-0.9l-3.2-4.1v4.1h-1v-5.8h1l3.2,4V66.6z"/>
		<path class="st0" d="M116.5,69c1.2,0.3,1.9,0.7,1.9,1.7c0,1.1-0.9,1.7-2.1,1.7c-0.9,0-1.8-0.3-2.5-0.9l0.6-0.7
			c0.6,0.5,1.1,0.7,1.9,0.7c0.6,0,1-0.3,1-0.7c0-0.4-0.2-0.6-1.3-0.9c-1.3-0.3-2-0.7-2-1.7c0-1,0.8-1.7,2-1.7c0.9,0,1.5,0.3,2.1,0.7
			l-0.6,0.8c-0.5-0.4-1.1-0.6-1.6-0.6c-0.6,0-1,0.3-1,0.7C115.1,68.5,115.3,68.7,116.5,69z"/>
		<path class="st0" d="M121.9,70.5h-1.2v1.9h-1v-5.8h2.3c1.4,0,2.2,0.8,2.2,1.9C124.3,69.8,123.2,70.5,121.9,70.5z M122,67.5h-1.2
			v2.1h1.2c0.8,0,1.3-0.4,1.3-1C123.3,67.8,122.8,67.5,122,67.5z"/>
		<path class="st0" d="M128.3,72.4c-1.8,0-3.1-1.3-3.1-3c0-1.6,1.3-3,3.1-3c1.8,0,3.1,1.3,3.1,3C131.4,71.1,130.2,72.4,128.3,72.4z
			 M128.3,67.4c-1.2,0-2,0.9-2,2c0,1.1,0.8,2.1,2,2.1c1.2,0,2-0.9,2-2C130.3,68.3,129.5,67.4,128.3,67.4z"/>
		<path class="st0" d="M136.6,72.3l-1.4-2h-1.3v2h-1v-5.8h2.6c1.4,0,2.2,0.7,2.2,1.8c0,1-0.6,1.5-1.4,1.8l1.6,2.2H136.6z
			 M135.4,67.5h-1.5v1.9h1.5c0.7,0,1.2-0.4,1.2-1C136.6,67.8,136.2,67.5,135.4,67.5z"/>
		<path class="st0" d="M141.6,72.3h-1v-4.8h-1.9v-0.9h4.8v0.9h-1.9V72.3z"/>
		<path class="st0" d="M149.1,67.5h-3.3V69h3v0.9h-3v1.5h3.4v0.9h-4.4v-5.8h4.4V67.5z"/>
		<path class="st0" d="M156,72.3h-1v-2.3l-2.3-3.5h1.2l1.6,2.5l1.7-2.5h1.2L156,70V72.3z"/>
		<path class="st0" d="M162.1,66.6h1v4.8h3.1v0.9h-4.1V66.6z"/>
		<path class="st0" d="M169.9,72.4c-1.8,0-3.1-1.3-3.1-3c0-1.6,1.3-3,3.1-3c1.8,0,3.1,1.3,3.1,3C173,71.1,171.7,72.4,169.9,72.4z
			 M169.9,67.4c-1.2,0-2,0.9-2,2c0,1.1,0.8,2.1,2,2.1c1.2,0,2-0.9,2-2C171.9,68.3,171.1,67.4,169.9,67.4z"/>
		<path class="st0" d="M177.2,72.4c-1.8,0-3.1-1.3-3.1-3c0-1.6,1.3-3,3-3c1,0,1.7,0.3,2.3,0.8l-0.7,0.8c-0.5-0.4-0.9-0.6-1.6-0.6
			c-1.1,0-1.9,0.9-1.9,2c0,1.2,0.8,2.1,2,2.1c0.6,0,1.1-0.2,1.4-0.4V70h-1.5v-0.9h2.5v2.4C179.1,72,178.3,72.4,177.2,72.4z"/>
		<path class="st0" d="M182.3,66.6v5.8h-1v-5.8H182.3z M181.4,66.1l0.9-1.3l0.9,0.4l-1,0.9H181.4z"/>
		<path class="st0" d="M186.3,69c1.2,0.3,1.9,0.7,1.9,1.7c0,1.1-0.9,1.7-2.1,1.7c-0.9,0-1.8-0.3-2.5-0.9l0.6-0.7
			c0.6,0.5,1.1,0.7,1.9,0.7c0.6,0,1-0.3,1-0.7c0-0.4-0.2-0.6-1.3-0.9c-1.3-0.3-2-0.7-2-1.7c0-1,0.8-1.7,2-1.7c0.9,0,1.5,0.3,2.1,0.7
			l-0.6,0.8c-0.5-0.4-1.1-0.6-1.6-0.6c-0.6,0-1,0.3-1,0.7C184.9,68.5,185.2,68.7,186.3,69z"/>
		<path class="st0" d="M192,72.3h-1v-4.8h-1.9v-0.9h4.8v0.9H192V72.3z"/>
		<path class="st0" d="M196.2,66.6v5.8h-1v-5.8H196.2z"/>
		<path class="st0" d="M200.7,72.4c-1.7,0-3-1.3-3-3c0-1.6,1.3-3,3-3c1.1,0,1.7,0.4,2.3,0.9l-0.7,0.7c-0.5-0.4-1-0.7-1.6-0.7
			c-1.1,0-1.9,0.9-1.9,2c0,1.1,0.8,2.1,1.9,2.1c0.7,0,1.2-0.3,1.7-0.7l0.7,0.7C202.4,72,201.8,72.4,200.7,72.4z"/>
		<path class="st0" d="M210,72.3h-1.1l-0.6-1.4h-2.8l-0.6,1.4h-1.1l2.6-5.8h1L210,72.3z M206.9,67.7l-1,2.3h2L206.9,67.7z"/>
	</g>
	<path class="st0" d="M89.3,45.4c0,4.6,3.7,8.3,8.3,8.3c2.6,0,5.1-1.2,6.7-3.3c1.2-1.6,3.4-1.9,5-0.7c1.6,1.2,1.9,3.5,0.7,5
		c-2.9,3.9-7.5,6.2-12.4,6.2c-8.5,0-15.5-7-15.5-15.5c0-8.5,7-15.5,15.5-15.5c4.9,0,9.5,2.4,12.5,6.3c1.2,1.6,0.8,3.8-0.8,5
		c-1.6,1.2-3.8,0.8-5-0.8c-1.6-2.1-4-3.4-6.7-3.4C93.1,37.1,89.3,40.8,89.3,45.4z"/>
	<path class="st0" d="M143.5,57.3c0,2-1.6,3.6-3.6,3.6c-1.6,0-3-1.1-3.4-2.5c-2.5,1.6-5.4,2.5-8.5,2.5c-8.5,0-15.5-7-15.5-15.5
		c0-8.5,7-15.5,15.5-15.5c3.1,0,6,0.9,8.5,2.5c0.4-1.4,1.8-2.5,3.4-2.5c2,0,3.6,1.6,3.6,3.6V57.3z M136.3,45.1
		c-0.2-4.4-3.9-7.9-8.3-7.9c-4.6,0-8.3,3.7-8.3,8.3s3.7,8.3,8.3,8.3c4.4,0,8.1-3.5,8.3-7.9V45.1z"/>
	<path class="st0" d="M177.2,57.4c0,2-1.6,3.6-3.6,3.6c-2.1-0.1-3.1-1.2-3.4-2.5c-2.5,1.6-5.4,2.5-8.5,2.5c-8.5,0-15.5-7-15.5-15.5
		c0-8.5,7-15.5,15.5-15.5c3.1,0,5.9,0.9,8.3,2.5V20.9c0-2,1.6-3.6,3.6-3.6c2,0,3.6,1.6,3.6,3.6V57.4z M170,45.5
		c0-4.7-3.9-8.3-8.3-8.3c-4.6,0-8.3,3.7-8.3,8.3s3.7,8.3,8.3,8.3C166.3,53.8,170,50.1,170,45.5z"/>
	<path class="st0" d="M211,57.4c0,2-1.6,3.6-3.6,3.6c-2.1-0.1-3.1-1.2-3.4-2.5c-2.5,1.6-5.4,2.5-8.5,2.5c-8.5,0-15.5-7-15.5-15.5
		c0-8.5,7-15.5,15.5-15.5c3.1,0,5.9,0.9,8.3,2.5V20.9c0-2,1.6-3.6,3.6-3.6c2,0,3.6,1.6,3.6,3.6V57.4z M203.8,45.5
		c0-4.7-3.9-8.3-8.3-8.3c-4.6,0-8.3,3.7-8.3,8.3s3.7,8.3,8.3,8.3C200.1,53.8,203.8,50.1,203.8,45.5z"/>
	<path class="st0" d="M237.4,32c0.6-1.1,1.8-1.9,3.1-1.9c2,0,3.6,1.6,3.6,3.6c0,0.3-0.1,0.9-0.6,2l-17.6,34.5c-0.6,1.3-1.9,2-3.2,2
		c-0.5,0-1.1-0.1-1.6-0.4c-1.8-0.9-2.5-3.1-1.5-4.8l5-9.9l-11-21.8c-0.9-1.8-0.2-3.9,1.6-4.8c1.8-0.9,3.9-0.2,4.8,1.6l8.7,17.1
		L237.4,32z"/>
	<g>
		<path class="st0" d="M67.3,25.1l-7.5-4.5L57.3,19c2-2,3.3-4.8,3.3-7.9C60.6,5,55.6,0,49.4,0C44,0,39.5,3.8,38.5,8.9
			c-1.3-0.2-2.7-0.2-4,0C33.4,3.8,28.9,0,23.6,0c-6.2,0-11.2,5-11.2,11.2c0,3,1.2,5.8,3.2,7.8l-4.9,3l-5.1,3.1
			C2.1,27.2,0,30.6,0,34.4v31.3c0,3.7,2.1,7.2,5.6,9.3l23.7,14.3c2.2,1.3,4.7,2,7.2,2c2.5,0,5-0.7,7.2-2L67.3,75
			c3.5-2.1,5.6-5.6,5.6-9.3V34.4C72.9,30.6,70.8,27.2,67.3,25.1z M49.4,5c3.4,0,6.2,2.8,6.2,6.2c0,2.2-1.1,4.1-2.8,5.2l-3.2-1.9
			l-6.1-3.6c-0.1-0.1-0.2-0.1-0.3-0.2C43.6,7.4,46.2,5,49.4,5z M23.6,5c3.2,0,5.8,2.4,6.2,5.5c-0.1,0.1-0.3,0.2-0.4,0.2l-9.2,5.5
			c-1.6-1.1-2.7-3-2.7-5.1C17.3,7.7,20.1,5,23.6,5z M67.6,65.7c0,2.2-1.2,4.2-3.3,5.5L40.6,85.4c-2.5,1.5-5.8,1.5-8.4,0L8.5,71.1
			c-2-1.2-3.3-3.3-3.3-5.5V34.4c0-2.2,1.2-4.2,3.3-5.5l23.7-14.3c1.3-0.8,2.7-1.2,4.2-1.2c1.5,0,2.9,0.4,4.2,1.2l23.7,14.3
			c2,1.2,3.3,3.3,3.3,5.5V65.7z"/>
		<path class="st0" d="M54.6,35.6L45.2,41c-6.7-5.2-13.1-2.8-16.5-0.1l-8.5-5c-1.3-0.8-3-0.4-3.8,0.9c-0.8,1.3-0.4,3,0.9,3.8
			l15.9,9.5c0.6,0.4,1,1,1,1.7v9.3h-4.1c-1.5,0-2.7,1.2-2.7,2.7c0,1.5,1.2,2.7,2.7,2.7h0.7v1.7c0,3.4,2.8,6.2,6.2,6.2
			c3.4,0,6.2-2.8,6.2-6.2v-1.7h1.1c1.5,0,2.7-1.2,2.7-2.7c0-1.5-1.2-2.7-2.7-2.7h-4.5v-9.3c0-0.7,0.4-1.3,1-1.7l16.7-9.8
			c1.3-0.8,1.7-2.5,1-3.8C57.6,35.2,55.9,34.8,54.6,35.6z M39,68.2c0,1.1-0.9,1.9-1.9,1.9c-1.1,0-1.9-0.9-1.9-1.9v-1.7H39V68.2z
			 M37,45.8l-3.4-2.2c1.7-0.8,4.1-1.2,6.8,0.1L37,45.8z"/>
	</g>
</g>
</svg>
